<svg
        xmlns="http://www.w3.org/2000/svg"
        xmlns:xlink="http://www.w3.org/1999/xlink"
        width="28px" height="22px">
    <path fill-rule="evenodd"  fill="rgb(255, 255, 255)"
          d="M25.290,13.357 L2.710,13.357 C1.219,13.357 -0.000,12.296 -0.000,11.000 C-0.000,9.704 1.219,8.643 2.710,8.643 L25.290,8.643 C26.781,8.643 28.000,9.704 28.000,11.000 C28.000,12.296 26.781,13.357 25.290,13.357 ZM25.290,4.714 L2.710,4.714 C1.219,4.714 -0.000,3.654 -0.000,2.357 C-0.000,1.061 1.219,0.000 2.710,0.000 L25.290,0.000 C26.781,0.000 28.000,1.061 28.000,2.357 C28.000,3.654 26.781,4.714 25.290,4.714 ZM2.710,17.286 L25.290,17.286 C26.781,17.286 28.000,18.346 28.000,19.643 C28.000,20.939 26.781,22.000 25.290,22.000 L2.710,22.000 C1.219,22.000 -0.000,20.939 -0.000,19.643 C-0.000,18.346 1.219,17.286 2.710,17.286 Z"/>
</svg>