<svg
        xmlns="http://www.w3.org/2000/svg"
        xmlns:xlink="http://www.w3.org/1999/xlink"
        width="29px" height="29px">
    <path fill-rule="evenodd"  fill="rgb(255, 255, 255)"
          d="M17.309,-0.000 C10.853,-0.000 5.619,5.233 5.619,11.690 C5.619,14.469 6.594,17.017 8.212,19.028 L0.486,26.752 C-0.000,27.239 -0.000,28.027 0.486,28.513 C0.971,28.998 1.761,29.000 2.246,28.513 L9.973,20.786 C11.980,22.405 14.531,23.380 17.309,23.380 C23.766,23.380 29.000,18.146 29.000,11.690 C29.000,5.233 23.764,-0.000 17.309,-0.000 ZM17.309,21.581 C11.854,21.581 7.417,17.145 7.417,11.690 C7.417,6.235 11.854,1.798 17.309,1.798 C22.764,1.798 27.201,6.235 27.201,11.690 C27.201,17.145 22.764,21.581 17.309,21.581 Z"/>
</svg>