<svg
        xmlns="http://www.w3.org/2000/svg"
        xmlns:xlink="http://www.w3.org/1999/xlink"
        width="20px" height="33px">
    <path fill-rule="evenodd"  fill="rgb(255, 255, 255)"
          d="M7.813,17.627 L9.507,17.627 C14.448,17.627 17.931,14.148 17.931,9.730 C17.931,5.405 14.542,1.879 9.742,1.879 C6.165,1.879 2.918,4.184 2.165,7.663 L0.000,7.663 C0.849,3.009 4.801,-0.000 9.649,-0.000 C15.672,-0.000 20.000,4.276 20.000,9.730 C20.000,15.044 16.002,19.131 9.978,19.227 L9.930,24.161 L8.049,24.161 L7.813,17.627 ZM7.296,31.308 C7.296,30.370 8.049,29.616 9.036,29.616 C9.978,29.616 10.777,30.370 10.777,31.308 C10.777,32.296 9.978,33.000 9.036,33.000 C8.049,33.000 7.296,32.296 7.296,31.308 Z"/>
</svg>