<svg
        xmlns="http://www.w3.org/2000/svg"
        xmlns:xlink="http://www.w3.org/1999/xlink"
        width="27px" height="29px">
    <path fill-rule="evenodd"  fill="rgb(255, 255, 255)"
          d="M22.410,13.622 C24.417,14.604 25.617,16.322 26.338,19.736 C27.000,22.876 26.962,29.000 26.962,29.000 L14.266,29.000 L6.706,29.000 L10.538,17.899 C10.538,17.899 8.851,18.043 5.451,17.922 L5.451,14.092 C6.174,13.963 6.704,13.574 6.704,13.109 C6.704,12.539 5.912,12.076 4.936,12.076 C3.961,12.076 3.170,12.539 3.170,13.109 C3.170,13.574 3.698,13.963 4.422,14.092 L4.422,17.870 C0.933,17.579 0.672,15.512 0.342,14.143 C0.000,12.725 1.026,11.389 1.026,11.389 L5.653,9.386 L5.699,7.121 C5.985,5.950 7.109,2.681 10.929,0.296 C13.277,0.000 16.363,0.538 16.363,0.538 C25.120,0.684 24.758,3.793 24.330,8.300 C24.061,11.130 23.319,12.248 22.804,12.689 C17.679,10.476 15.711,2.701 15.701,2.614 C15.743,3.002 16.728,11.233 22.410,13.622 ZM8.278,6.007 C7.695,6.007 7.222,6.846 7.222,7.882 C7.222,8.917 7.695,9.758 8.278,9.758 C8.860,9.758 9.331,8.917 9.331,7.882 C9.331,6.846 8.859,6.007 8.278,6.007 ZM12.071,5.997 C11.486,5.997 11.012,6.841 11.012,7.881 C11.012,8.920 11.486,9.764 12.071,9.764 C12.654,9.764 13.128,8.920 13.128,7.881 C13.128,6.841 12.654,5.997 12.071,5.997 ZM4.884,6.223 L2.997,8.635 C2.997,8.635 1.884,9.135 1.797,4.962 C1.712,0.788 4.796,0.204 4.796,0.204 L8.905,0.481 C6.392,2.514 5.324,4.837 4.884,6.223 Z"/>
</svg>