<svg
        xmlns="http://www.w3.org/2000/svg"
        xmlns:xlink="http://www.w3.org/1999/xlink"
        width="27px" height="31px">
    <path fill-rule="evenodd"  fill="rgb(255, 255, 255)"
          d="M26.625,16.215 C26.547,16.262 24.641,17.452 24.641,20.833 C24.641,22.854 25.337,24.142 25.950,25.278 C26.447,26.198 26.916,27.067 26.916,28.130 C26.916,29.053 26.655,29.742 26.142,30.179 C25.683,30.569 25.161,30.633 24.871,30.633 C24.802,30.633 24.746,30.629 24.708,30.625 L20.399,30.625 L12.576,30.625 L3.509,30.625 C2.096,30.625 0.947,29.495 0.947,28.105 L0.947,1.383 C0.947,1.115 1.134,0.880 1.400,0.816 C1.664,0.752 1.941,0.875 2.068,1.115 L4.737,6.172 C5.153,6.169 5.975,6.168 7.636,6.168 C15.458,6.168 18.071,6.188 18.960,6.205 L21.858,1.485 C21.996,1.261 22.269,1.153 22.525,1.225 C22.782,1.295 22.960,1.525 22.960,1.787 L22.960,28.106 C22.960,28.604 22.810,29.068 22.556,29.459 L24.740,29.459 C24.768,29.459 24.797,29.461 24.826,29.465 C24.831,29.465 25.139,29.496 25.375,29.288 C25.606,29.084 25.729,28.684 25.729,28.130 C25.729,27.358 25.364,26.682 24.902,25.826 C24.257,24.632 23.454,23.146 23.454,20.833 C23.454,16.752 25.915,15.272 26.020,15.211 C26.301,15.047 26.666,15.138 26.833,15.415 C27.000,15.693 26.907,16.051 26.625,16.215 ZM7.198,10.784 C5.766,10.784 4.601,11.930 4.601,13.339 C4.601,14.747 5.766,15.893 7.198,15.893 C8.630,15.893 9.795,14.747 9.795,13.339 C9.795,11.930 8.629,10.784 7.198,10.784 ZM13.354,17.278 L10.553,17.278 C10.111,17.278 9.752,17.631 9.752,18.066 C9.752,18.501 10.111,18.854 10.553,18.854 L11.160,18.854 L11.101,19.857 C11.074,20.290 11.412,20.663 11.853,20.688 C11.869,20.689 11.885,20.689 11.900,20.689 C12.321,20.689 12.674,20.366 12.698,19.947 L12.763,18.853 L13.354,18.853 C13.796,18.853 14.155,18.501 14.155,18.066 C14.155,17.631 13.796,17.278 13.354,17.278 ZM16.709,10.784 C15.277,10.784 14.112,11.930 14.112,13.339 C14.112,14.747 15.277,15.893 16.709,15.893 C18.141,15.893 19.306,14.747 19.306,13.339 C19.306,11.930 18.141,10.784 16.709,10.784 ZM16.709,14.428 C16.097,14.428 15.601,13.940 15.601,13.339 C15.601,12.737 16.097,12.249 16.709,12.249 C17.320,12.249 17.816,12.737 17.816,13.339 C17.816,13.940 17.320,14.428 16.709,14.428 ZM7.198,14.428 C6.587,14.428 6.091,13.940 6.091,13.339 C6.091,12.737 6.587,12.249 7.198,12.249 C7.809,12.249 8.305,12.737 8.305,13.339 C8.305,13.940 7.809,14.428 7.198,14.428 Z"/>
</svg>