<svg
        xmlns="http://www.w3.org/2000/svg"
        xmlns:xlink="http://www.w3.org/1999/xlink"
        width="28px" height="28px">
    <path fill-rule="evenodd"  fill="rgb(255, 255, 255)"
          d="M26.785,19.340 C25.843,19.095 24.472,18.449 22.769,16.836 C22.183,16.283 21.485,16.392 21.263,17.161 C20.829,18.662 20.388,21.193 21.271,23.692 C21.538,24.447 22.061,25.692 21.760,26.434 C21.444,27.209 20.568,27.957 18.281,27.668 C18.281,27.668 5.077,26.754 2.158,17.734 C2.158,17.734 1.951,17.165 1.408,16.333 C0.969,15.661 0.368,14.491 0.722,13.773 C0.748,13.720 0.776,13.667 0.806,13.613 C1.196,12.913 1.788,11.822 2.053,11.066 C2.984,8.401 6.253,2.688 17.394,0.672 C17.394,0.672 23.423,-0.350 21.756,3.816 C21.756,3.816 20.250,8.332 21.149,11.438 C21.372,12.208 22.165,12.247 22.774,11.720 C23.599,11.008 24.879,10.134 26.453,9.821 C27.246,9.663 27.716,10.329 27.571,11.116 C27.292,12.630 27.053,15.204 27.797,18.048 C28.000,18.821 27.566,19.543 26.785,19.340 ZM5.610,12.332 C4.164,12.332 2.992,13.491 2.992,14.918 C2.992,16.346 4.164,17.505 5.610,17.505 C7.055,17.505 8.228,16.347 8.228,14.918 C8.228,13.491 7.056,12.332 5.610,12.332 ZM5.503,15.013 C4.948,15.013 4.497,14.568 4.497,14.019 C4.497,13.471 4.948,13.026 5.503,13.026 C6.059,13.026 6.509,13.471 6.509,14.019 C6.509,14.568 6.059,15.013 5.503,15.013 Z"/>
</svg>