<svg
xmlns="http://www.w3.org/2000/svg"
xmlns:xlink="http://www.w3.org/1999/xlink"
width="843px" height="1400px">
<path fill-rule="evenodd"  fill="rgb(255, 255, 255)"
      d="M681.433,1242.918 C655.343,1233.440 629.044,1233.977 602.456,1242.918 C581.121,1233.822 558.478,1233.617 534.294,1242.918 C488.122,1279.468 496.211,1338.936 492.100,1400.001 L363.246,1400.001 C361.920,1332.626 359.248,1278.199 315.579,1242.918 C293.023,1234.675 271.146,1233.306 250.510,1242.918 C225.667,1234.644 199.404,1233.216 170.772,1242.918 C-54.398,888.031 -75.993,465.840 223.761,319.706 C132.220,235.010 103.006,122.472 95.476,0.236 C316.079,267.653 533.064,274.748 746.137,0.236 C753.141,133.118 719.394,245.581 618.033,324.191 C918.830,478.735 893.133,901.276 681.433,1242.918 ZM248.805,457.873 C164.444,457.873 96.064,517.070 96.064,590.090 C96.064,663.104 164.444,722.298 248.805,722.298 C333.158,722.298 401.538,663.107 401.546,590.090 C401.546,517.070 333.158,457.873 248.805,457.873 ZM371.871,737.024 C314.637,737.024 395.639,853.836 416.810,853.836 C438.364,853.836 519.777,737.018 462.405,737.024 L371.871,737.024 ZM588.258,457.873 C503.908,457.873 435.517,517.070 435.517,590.090 C435.517,663.107 503.908,722.298 588.258,722.298 C672.620,722.298 741.008,663.107 741.008,590.090 C741.008,517.070 672.620,457.873 588.258,457.873 ZM538.761,663.551 C503.617,663.551 475.126,638.890 475.126,608.469 C475.126,578.048 503.617,553.384 538.761,553.384 C573.908,553.384 602.396,578.048 602.396,608.469 C602.396,638.890 573.908,663.551 538.761,663.551 ZM298.299,663.551 C263.158,663.551 234.667,638.890 234.667,608.469 C234.667,578.048 263.158,553.384 298.299,553.384 C333.446,553.384 361.940,578.048 361.940,608.469 C361.940,638.890 333.446,663.551 298.299,663.551 ZM136.380,1268.963 C152.769,1268.963 167.068,1281.210 174.759,1299.418 C182.427,1281.210 196.743,1268.963 213.118,1268.963 C228.933,1268.963 242.822,1280.375 250.677,1297.568 C258.529,1280.375 272.404,1268.963 288.219,1268.963 C312.709,1268.963 332.587,1296.370 332.587,1330.168 C332.587,1363.963 312.709,1391.373 288.219,1391.373 C272.404,1391.373 258.529,1379.961 250.677,1362.768 C242.822,1379.958 228.933,1391.373 213.118,1391.373 C196.743,1391.373 182.433,1379.126 174.759,1360.915 C167.068,1379.126 152.769,1391.373 136.380,1391.373 C111.864,1391.373 92.001,1363.963 92.001,1330.168 C92.001,1296.370 111.864,1268.963 136.380,1268.963 ZM563.964,1268.963 C580.355,1268.963 594.657,1281.210 602.348,1299.418 C610.019,1281.210 624.347,1268.963 640.716,1268.963 C656.533,1268.963 670.425,1280.375 678.269,1297.568 C686.124,1280.375 699.994,1268.963 715.808,1268.963 C740.293,1268.963 760.173,1296.370 760.173,1330.168 C760.173,1363.963 740.298,1391.373 715.808,1391.373 C699.994,1391.373 686.124,1379.961 678.269,1362.768 C670.417,1379.958 656.531,1391.373 640.716,1391.373 C624.341,1391.373 610.019,1379.126 602.348,1360.915 C594.657,1379.126 580.349,1391.373 563.964,1391.373 C539.460,1391.373 519.584,1363.963 519.584,1330.168 C519.584,1296.370 539.451,1268.963 563.964,1268.963 Z"/>
</svg>