<svg
        xmlns="http://www.w3.org/2000/svg"
        xmlns:xlink="http://www.w3.org/1999/xlink"
        width="1234px" height="1371px">
    <path fill-rule="evenodd"  fill="rgb(255, 255, 255)"
          d="M1113.916,1123.765 L1113.916,819.377 C1158.503,819.377 1194.652,782.166 1194.652,736.265 C1194.652,690.365 1158.503,653.150 1113.916,653.150 L1113.916,452.185 C1173.068,421.655 1213.771,358.828 1213.771,286.068 C1213.771,183.402 1132.913,100.164 1033.180,100.164 C933.447,100.164 852.593,183.402 852.593,286.068 L495.306,286.068 C496.436,276.159 497.182,266.132 497.182,255.909 C497.182,114.575 385.883,-0.001 248.589,-0.001 C111.295,-0.001 -0.000,114.575 -0.000,255.909 C-0.000,368.106 70.251,463.211 167.853,497.745 L167.853,653.150 C123.266,653.150 87.117,690.365 87.117,736.265 C87.117,782.166 123.266,819.377 167.853,819.377 L167.853,1123.765 C101.536,1123.765 47.774,1179.108 47.774,1247.381 C47.774,1315.651 101.536,1371.001 167.853,1371.001 C189.887,1371.001 210.467,1364.790 228.212,1354.128 C245.726,1364.500 265.933,1370.531 287.486,1370.531 L994.287,1370.531 C1015.836,1370.531 1036.043,1364.500 1053.558,1354.128 C1071.303,1364.790 1091.882,1371.001 1113.916,1371.001 C1180.237,1371.001 1234.002,1315.651 1234.002,1247.381 C1234.002,1179.108 1180.237,1123.765 1113.916,1123.765 ZM741.357,576.715 C782.370,576.715 815.611,610.940 815.611,653.150 C815.611,695.371 782.370,729.596 741.357,729.596 C700.351,729.596 667.110,695.371 667.110,653.150 C667.110,610.940 700.351,576.715 741.357,576.715 ZM515.230,559.341 C578.605,559.341 629.981,612.236 629.981,677.473 C629.981,742.717 578.605,795.609 515.230,795.609 C451.852,795.609 400.472,742.717 400.472,677.473 C400.472,612.236 451.852,559.341 515.230,559.341 ZM771.013,1084.087 L658.699,1088.061 L654.334,957.423 C649.846,957.499 645.411,957.672 640.878,957.672 C637.046,957.672 633.290,957.515 629.486,957.457 L625.267,1087.999 L512.950,1084.156 L517.378,947.139 C420.327,930.128 341.805,893.536 297.922,845.762 L325.744,828.353 C382.828,884.928 504.062,925.088 640.878,925.088 C777.715,925.088 898.871,884.893 955.938,828.300 L983.840,845.754 C940.271,893.200 862.541,929.616 766.428,946.783 L771.013,1084.087 Z"/>
</svg>