<?xml version="1.0" encoding="utf-8"?>
<!-- Generator: Adobe Illustrator 21.0.0, SVG Export Plug-In . SVG Version: 6.00 Build 0)  -->
<svg version="1.1" id="Layer_1" xmlns="http://www.w3.org/2000/svg" xmlns:xlink="http://www.w3.org/1999/xlink" x="0px" y="0px"
	 viewBox="0 0 621.5 739" style="enable-background:new 0 0 621.5 739;" xml:space="preserve">
<path d="M333.2,0h-44.4v192.5h44.4V0z M620,405.7c-17.8-127.6-113.7-172.9-190.4-172.9c-10.1,0.1-20.1,0.8-30.1,2.3
	c-6.9-48.9-52.2-83-101.1-76c-39.4,5.6-70.4,36.6-76,76c-10-1.4-20-2.2-30.1-2.2l0,0c-76.7,0-172.6,45.3-190.4,172.9
	c-29.3,210.3,281.4,326,294.6,330.8l7,2.4h7.4c19.4,0,166.8-61.8,247.5-153.7c46.5-47.5,69.2-113.5,61.5-179.5L620,405.7z
	 M311,192.7c28.4,0,52.2,21.6,54.8,49.9c-19.8,6.1-38.4,15.6-54.8,28.2c-16.5-12.6-35-22.1-54.8-28.2c2.7-28.2,26.4-49.8,54.8-49.8
	L311,192.7z M311,697.4L311,697.4c0,0-292.5-106.5-267.5-286c13.8-99.3,83.4-137,148.9-137c52.7,0,102.9,24.6,118.7,61.2l0,0
	c15.8-36.5,65.8-61.2,118.7-61.2c65.4,0,135,37.7,148.9,137C603.5,590.9,311,697.4,311,697.4L311,697.4z"/>
</svg>
