<svg
        xmlns="http://www.w3.org/2000/svg"
        xmlns:xlink="http://www.w3.org/1999/xlink"
        width="31px" height="21px">
    <path fill-rule="evenodd"  fill="rgb(162, 162, 162)"
          d="M28.106,21.000 L2.893,21.000 C1.298,21.000 0.000,19.708 0.000,18.119 L0.000,2.881 C0.000,1.292 1.298,-0.000 2.893,-0.000 L28.106,-0.000 C29.702,-0.000 31.000,1.292 31.000,2.881 L31.000,18.119 C31.000,19.708 29.702,21.000 28.106,21.000 ZM29.071,2.881 C29.071,2.352 28.638,1.921 28.106,1.921 L2.893,1.921 C2.362,1.921 1.929,2.352 1.929,2.881 L1.929,18.119 C1.929,18.648 2.362,19.079 2.893,19.079 L28.106,19.079 C28.638,19.079 29.071,18.648 29.071,18.119 L29.071,2.881 ZM16.139,14.890 C15.957,15.050 15.729,15.130 15.502,15.130 C15.274,15.130 15.046,15.050 14.864,14.890 L4.185,5.522 C3.785,5.171 3.747,4.565 4.099,4.167 C4.451,3.769 5.060,3.730 5.461,4.081 L15.501,12.890 L25.540,4.081 C25.939,3.731 26.549,3.769 26.902,4.167 C27.254,4.565 27.215,5.171 26.815,5.522 L16.139,14.890 Z"/>
</svg>