<svg
        xmlns="http://www.w3.org/2000/svg"
        xmlns:xlink="http://www.w3.org/1999/xlink"
        width="65px" height="52px">
    <path fill-rule="evenodd"  fill="rgb(255, 255, 255)"
          d="M-0.000,52.000 L-0.000,-0.000 L65.000,-0.000 L65.000,52.000 L-0.000,52.000 ZM63.051,1.984 L1.949,1.984 L1.949,50.022 L63.051,50.022 L63.051,1.984 ZM16.127,18.251 C19.832,18.251 22.843,21.291 22.843,25.033 C22.843,28.775 19.832,31.816 16.127,31.816 C12.428,31.816 9.412,28.775 9.412,25.033 C9.412,21.291 12.428,18.251 16.127,18.251 ZM16.127,29.942 C18.807,29.942 20.988,27.739 20.988,25.033 C20.988,22.326 18.807,20.128 16.127,20.128 C13.448,20.128 11.272,22.326 11.272,25.033 C11.272,27.739 13.448,29.942 16.127,29.942 ZM57.138,10.682 L33.776,10.682 L33.776,8.698 L57.138,8.698 L57.138,10.682 ZM57.138,20.588 L33.776,20.588 L33.776,18.605 L57.138,18.605 L57.138,20.588 ZM57.138,30.495 L33.776,30.495 L33.776,28.511 L57.138,28.511 L57.138,30.495 ZM57.138,40.402 L33.776,40.402 L33.776,38.418 L57.138,38.418 L57.138,40.402 Z"/>
</svg>